<svg xmlns="http://www.w3.org/2000/svg" viewBox="0 0 100 100">
  <defs>
    <linearGradient id="grad" x1="0%" y1="0%" x2="100%" y2="100%">
      <stop offset="0%" style="stop-color:#14b8a6;stop-opacity:1" />
      <stop offset="100%" style="stop-color:#0d9488;stop-opacity:1" />
    </linearGradient>
  </defs>
  <rect width="100" height="100" rx="20" fill="url(#grad)"/>
  <path d="M50 25c-8.3 0-15 6.7-15 15v5h-5c-2.8 0-5 2.2-5 5v20c0 2.8 2.2 5 5 5h40c2.8 0 5-2.2 5-5V50c0-2.8-2.2-5-5-5h-5v-5c0-8.3-6.7-15-15-15zm0 8c3.9 0 7 3.1 7 7v5H43v-5c0-3.9 3.1-7 7-7z" fill="white" opacity="0.9"/>
  <circle cx="50" cy="60" r="4" fill="white"/>
</svg>
