<svg xmlns="http://www.w3.org/2000/svg" version="1.1" xmlns:xlink="http://www.w3.org/1999/xlink" width="100" height="100"><svg xmlns="http://www.w3.org/2000/svg" version="1.1" xmlns:xlink="http://www.w3.org/1999/xlink" width="100" height="100"><svg xmlns="http://www.w3.org/2000/svg" viewBox="0 0 100 100">
  <defs>
    <linearGradient id="grad" x1="0%" y1="0%" x2="100%" y2="100%">
      <stop offset="0%" style="stop-color:#2563eb;stop-opacity:1"></stop>
      <stop offset="100%" style="stop-color:#1d4ed8;stop-opacity:1"></stop>
    </linearGradient>
  </defs>
  
  <!-- Background rounded box -->
  <rect width="100" height="100" rx="20" fill="url(#grad)"></rect>
  
  <!-- Lucide Stethoscope Icon (24x24 scaled to fit) -->
  <g transform="translate(18, 18) scale(2.7)" fill="none" stroke="white" stroke-width="2" stroke-linecap="round" stroke-linejoin="round">
    <path d="M4.8 2.3A.3.3 0 1 0 5 2H4a2 2 0 0 0-2 2v5a6 6 0 0 0 6 6 6 6 0 0 0 6-6V4a2 2 0 0 0-2-2h-1a.2.2 0 1 0 .3.3"></path>
    <path d="M8 15v1a6 6 0 0 0 6 6 6 6 0 0 0 6-6v-4"></path>
    <circle cx="20" cy="10" r="2"></circle>
  </g>
</svg></svg><style>@media (prefers-color-scheme: light) { :root { filter: none; } }
@media (prefers-color-scheme: dark) { :root { filter: none; } }
</style></svg>